# xmcd CD database file
#
# Track frame offsets:
#	150
#	13885
#	27790
#	45311
#	60975
#	77488
#	89132
#	104332
#	120090
#	137408
#	154800
#	170199
#
# Disc length: 2516 seconds
#
# Revision: 1
# Processed by: cddbd v1.4PL0 Copyright (c) Steve Scherf et al.
# Submitted via: CDex 1.40Release
#
DISCID=8c09d20c
DTITLE=Tanya Tucker - Tanya Tucker
DYEAR=2002
DGENRE=Country
TTITLE0=1010 Whippowhill Lane
TTITLE1=A memory like I´m gonna be
TTITLE2=Borrowed wings
TTITLE3=I can do that
TTITLE4=I can live without you
TTITLE5=I still hear your voice
TTITLE6=Oh what a love
TTITLE7=Old weakness
TTITLE8=Over my shoulder
TTITLE9=Should a thought about that
TTITLE10=Waitin´ for the sun
TTITLE11=We had it all
EXTD=YEAR: 2002 ID3G: 2
EXTT0=
EXTT1=
EXTT2=
EXTT3=
EXTT4=
EXTT5=
EXTT6=
EXTT7=
EXTT8=
EXTT9=
EXTT10=
EXTT11=
PLAYORDER=
